<svg xmlns="http://www.w3.org/2000/svg" xmlns:xlink="http://www.w3.org/1999/xlink" width="500" zoomAndPan="magnify" viewBox="0 0 375 374.999991" height="500" preserveAspectRatio="xMidYMid meet" version="1.0"><defs><g/></defs><g fill="#877277" fill-opacity="0.4"><g transform="translate(5.288231, 206.387514)"><g><path d="M 5.015625 -17.140625 L 5.015625 -25.015625 L 46.3125 -42.078125 L 46.3125 -34.203125 L 12.984375 -21.03125 L 46.3125 -7.875 L 46.3125 0 Z M 5.015625 -17.140625 "/></g></g></g><g fill="#877277" fill-opacity="0.4"><g transform="translate(56.626956, 206.387514)"><g><path d="M 26.578125 -51.78125 L 26.40625 -51.78125 L 17.75 -23.984375 L 34.796875 -23.984375 Z M 43.03125 0 L 37.140625 -17.0625 L 15.75 -17.0625 L 9.953125 0 L 0.78125 0 L 21.125 -59.734375 L 31.78125 -59.734375 L 52.203125 0 Z M 43.03125 0 "/></g></g></g><g fill="#877277" fill-opacity="0.4"><g transform="translate(109.524029, 206.387514)"><g><path d="M 30.046875 0 L 14.375 -21.296875 L 14.203125 -21.296875 L 14.203125 0 L 6.40625 0 L 6.40625 -59.734375 L 14.203125 -59.734375 L 14.203125 -24.765625 L 28.578125 -41.21875 L 38.359375 -41.21875 L 23.109375 -23.203125 L 39.828125 0 Z M 30.046875 0 "/></g></g></g><g fill="#877277" fill-opacity="0.4"><g transform="translate(149.608053, 206.387514)"><g><path d="M 4.421875 0 L 4.421875 -11.953125 L 16.359375 -11.953125 L 16.359375 0 Z M 4.421875 0 "/></g></g></g><g fill="#877277" fill-opacity="1"><g transform="translate(1.461494, 202.560772)"><g><path d="M 5.015625 -17.140625 L 5.015625 -25.015625 L 46.3125 -42.078125 L 46.3125 -34.203125 L 12.984375 -21.03125 L 46.3125 -7.875 L 46.3125 0 Z M 5.015625 -17.140625 "/></g></g></g><g fill="#877277" fill-opacity="1"><g transform="translate(52.800219, 202.560772)"><g><path d="M 26.578125 -51.78125 L 26.40625 -51.78125 L 17.75 -23.984375 L 34.796875 -23.984375 Z M 43.03125 0 L 37.140625 -17.0625 L 15.75 -17.0625 L 9.953125 0 L 0.78125 0 L 21.125 -59.734375 L 31.78125 -59.734375 L 52.203125 0 Z M 43.03125 0 "/></g></g></g><g fill="#877277" fill-opacity="1"><g transform="translate(105.697292, 202.560772)"><g><path d="M 30.046875 0 L 14.375 -21.296875 L 14.203125 -21.296875 L 14.203125 0 L 6.40625 0 L 6.40625 -59.734375 L 14.203125 -59.734375 L 14.203125 -24.765625 L 28.578125 -41.21875 L 38.359375 -41.21875 L 23.109375 -23.203125 L 39.828125 0 Z M 30.046875 0 "/></g></g></g><g fill="#877277" fill-opacity="1"><g transform="translate(145.781316, 202.560772)"><g><path d="M 4.421875 0 L 4.421875 -11.953125 L 16.359375 -11.953125 L 16.359375 0 Z M 4.421875 0 "/></g></g></g><g fill="#877277" fill-opacity="0.4"><g transform="translate(170.486124, 206.387514)"><g><path d="M 20.6875 -6.921875 C 22.25 -6.921875 23.835938 -7.035156 25.453125 -7.265625 C 27.066406 -7.503906 28.566406 -7.96875 29.953125 -8.65625 C 31.742188 -9.632812 33.171875 -10.945312 34.234375 -12.59375 C 35.304688 -14.238281 36.113281 -16.039062 36.65625 -18 C 37.207031 -19.96875 37.554688 -21.972656 37.703125 -24.015625 C 37.847656 -26.066406 37.921875 -28.019531 37.921875 -29.875 C 37.921875 -31.65625 37.847656 -33.628906 37.703125 -35.796875 C 37.554688 -37.960938 37.207031 -40.039062 36.65625 -42.03125 C 36.113281 -44.019531 35.265625 -45.851562 34.109375 -47.53125 C 32.953125 -49.207031 31.394531 -50.476562 29.4375 -51.34375 C 28.050781 -51.976562 26.609375 -52.378906 25.109375 -52.546875 C 23.609375 -52.722656 22.109375 -52.8125 20.609375 -52.8125 L 15.578125 -52.8125 L 15.578125 -6.921875 Z M 6.921875 0 L 6.921875 -59.734375 L 22.25 -59.734375 C 27.15625 -59.734375 31.222656 -59.023438 34.453125 -57.609375 C 37.691406 -56.203125 40.273438 -54.195312 42.203125 -51.59375 C 44.140625 -49 45.492188 -45.867188 46.265625 -42.203125 C 47.046875 -38.535156 47.4375 -34.484375 47.4375 -30.046875 C 47.4375 -25.484375 47.046875 -21.351562 46.265625 -17.65625 C 45.492188 -13.96875 44.140625 -10.8125 42.203125 -8.1875 C 40.273438 -5.5625 37.691406 -3.539062 34.453125 -2.125 C 31.222656 -0.707031 27.15625 0 22.25 0 Z M 6.921875 0 "/></g></g></g><g fill="#877277" fill-opacity="0.4"><g transform="translate(221.824849, 206.387514)"><g><path d="M 27.359375 -28.828125 C 27.359375 -31.023438 26.648438 -32.785156 25.234375 -34.109375 C 23.816406 -35.441406 22.015625 -36.109375 19.828125 -36.109375 C 18.148438 -36.109375 16.632812 -35.703125 15.28125 -34.890625 C 13.925781 -34.078125 12.898438 -32.894531 12.203125 -31.34375 C 11.796875 -30.414062 11.59375 -29.578125 11.59375 -28.828125 Z M 34.203125 -0.4375 C 32.460938 -0.03125 30.753906 0.300781 29.078125 0.5625 C 27.410156 0.820312 25.679688 0.953125 23.890625 0.953125 C 20.203125 0.953125 17.070312 0.363281 14.5 -0.8125 C 11.9375 -2 9.832031 -3.644531 8.1875 -5.75 C 6.539062 -7.863281 5.34375 -10.347656 4.59375 -13.203125 C 3.84375 -16.054688 3.46875 -19.1875 3.46875 -22.59375 C 3.46875 -25.425781 3.785156 -28.039062 4.421875 -30.4375 C 5.054688 -32.832031 6.050781 -34.894531 7.40625 -36.625 C 8.757812 -38.351562 10.503906 -39.707031 12.640625 -40.6875 C 14.773438 -41.664062 17.316406 -42.15625 20.265625 -42.15625 C 22.742188 -42.15625 24.921875 -41.738281 26.796875 -40.90625 C 28.671875 -40.070312 30.226562 -38.914062 31.46875 -37.4375 C 32.707031 -35.96875 33.628906 -34.222656 34.234375 -32.203125 C 34.847656 -30.179688 35.15625 -27.988281 35.15625 -25.625 L 35.15625 -23.640625 L 11.25 -23.640625 C 11.25 -21.328125 11.550781 -19.054688 12.15625 -16.828125 C 12.769531 -14.609375 13.695312 -12.632812 14.9375 -10.90625 C 16.175781 -9.175781 17.75 -7.773438 19.65625 -6.703125 C 21.5625 -5.640625 23.8125 -5.109375 26.40625 -5.109375 C 27.789062 -5.109375 29.117188 -5.238281 30.390625 -5.5 C 31.660156 -5.757812 32.929688 -6.117188 34.203125 -6.578125 Z M 34.203125 -0.4375 "/></g></g></g><g fill="#877277" fill-opacity="0.4"><g transform="translate(260.263971, 206.387514)"><g><path d="M 15.9375 0 L 0.34375 -41.21875 L 9 -41.21875 L 19.734375 -11.25 L 19.90625 -11.25 L 29.515625 -41.21875 L 38.1875 -41.21875 L 23.890625 0 Z M 15.9375 0 "/></g></g></g><g fill="#877277" fill-opacity="0.4"><g transform="translate(298.703094, 206.387514)"><g><path d="M -0.859375 11.78125 L 18.953125 -65.890625 L 28.140625 -65.890625 L 8.3125 11.78125 Z M -0.859375 11.78125 "/></g></g></g><g fill="#877277" fill-opacity="0.4"><g transform="translate(325.974094, 206.387514)"><g><path d="M 5.015625 0 L 5.015625 -7.875 L 38.4375 -21.03125 L 5.015625 -34.203125 L 5.015625 -42.078125 L 46.3125 -25.015625 L 46.3125 -17.140625 Z M 5.015625 0 "/></g></g></g><g fill="#ad5530" fill-opacity="1"><g transform="translate(166.659388, 202.560772)"><g><path d="M 20.6875 -6.921875 C 22.25 -6.921875 23.835938 -7.035156 25.453125 -7.265625 C 27.066406 -7.503906 28.566406 -7.96875 29.953125 -8.65625 C 31.742188 -9.632812 33.171875 -10.945312 34.234375 -12.59375 C 35.304688 -14.238281 36.113281 -16.039062 36.65625 -18 C 37.207031 -19.96875 37.554688 -21.972656 37.703125 -24.015625 C 37.847656 -26.066406 37.921875 -28.019531 37.921875 -29.875 C 37.921875 -31.65625 37.847656 -33.628906 37.703125 -35.796875 C 37.554688 -37.960938 37.207031 -40.039062 36.65625 -42.03125 C 36.113281 -44.019531 35.265625 -45.851562 34.109375 -47.53125 C 32.953125 -49.207031 31.394531 -50.476562 29.4375 -51.34375 C 28.050781 -51.976562 26.609375 -52.378906 25.109375 -52.546875 C 23.609375 -52.722656 22.109375 -52.8125 20.609375 -52.8125 L 15.578125 -52.8125 L 15.578125 -6.921875 Z M 6.921875 0 L 6.921875 -59.734375 L 22.25 -59.734375 C 27.15625 -59.734375 31.222656 -59.023438 34.453125 -57.609375 C 37.691406 -56.203125 40.273438 -54.195312 42.203125 -51.59375 C 44.140625 -49 45.492188 -45.867188 46.265625 -42.203125 C 47.046875 -38.535156 47.4375 -34.484375 47.4375 -30.046875 C 47.4375 -25.484375 47.046875 -21.351562 46.265625 -17.65625 C 45.492188 -13.96875 44.140625 -10.8125 42.203125 -8.1875 C 40.273438 -5.5625 37.691406 -3.539062 34.453125 -2.125 C 31.222656 -0.707031 27.15625 0 22.25 0 Z M 6.921875 0 "/></g></g></g><g fill="#ad5530" fill-opacity="1"><g transform="translate(217.998113, 202.560772)"><g><path d="M 27.359375 -28.828125 C 27.359375 -31.023438 26.648438 -32.785156 25.234375 -34.109375 C 23.816406 -35.441406 22.015625 -36.109375 19.828125 -36.109375 C 18.148438 -36.109375 16.632812 -35.703125 15.28125 -34.890625 C 13.925781 -34.078125 12.898438 -32.894531 12.203125 -31.34375 C 11.796875 -30.414062 11.59375 -29.578125 11.59375 -28.828125 Z M 34.203125 -0.4375 C 32.460938 -0.03125 30.753906 0.300781 29.078125 0.5625 C 27.410156 0.820312 25.679688 0.953125 23.890625 0.953125 C 20.203125 0.953125 17.070312 0.363281 14.5 -0.8125 C 11.9375 -2 9.832031 -3.644531 8.1875 -5.75 C 6.539062 -7.863281 5.34375 -10.347656 4.59375 -13.203125 C 3.84375 -16.054688 3.46875 -19.1875 3.46875 -22.59375 C 3.46875 -25.425781 3.785156 -28.039062 4.421875 -30.4375 C 5.054688 -32.832031 6.050781 -34.894531 7.40625 -36.625 C 8.757812 -38.351562 10.503906 -39.707031 12.640625 -40.6875 C 14.773438 -41.664062 17.316406 -42.15625 20.265625 -42.15625 C 22.742188 -42.15625 24.921875 -41.738281 26.796875 -40.90625 C 28.671875 -40.070312 30.226562 -38.914062 31.46875 -37.4375 C 32.707031 -35.96875 33.628906 -34.222656 34.234375 -32.203125 C 34.847656 -30.179688 35.15625 -27.988281 35.15625 -25.625 L 35.15625 -23.640625 L 11.25 -23.640625 C 11.25 -21.328125 11.550781 -19.054688 12.15625 -16.828125 C 12.769531 -14.609375 13.695312 -12.632812 14.9375 -10.90625 C 16.175781 -9.175781 17.75 -7.773438 19.65625 -6.703125 C 21.5625 -5.640625 23.8125 -5.109375 26.40625 -5.109375 C 27.789062 -5.109375 29.117188 -5.238281 30.390625 -5.5 C 31.660156 -5.757812 32.929688 -6.117188 34.203125 -6.578125 Z M 34.203125 -0.4375 "/></g></g></g><g fill="#ad5530" fill-opacity="1"><g transform="translate(256.437235, 202.560772)"><g><path d="M 15.9375 0 L 0.34375 -41.21875 L 9 -41.21875 L 19.734375 -11.25 L 19.90625 -11.25 L 29.515625 -41.21875 L 38.1875 -41.21875 L 23.890625 0 Z M 15.9375 0 "/></g></g></g><g fill="#ad5530" fill-opacity="1"><g transform="translate(294.876357, 202.560772)"><g><path d="M -0.859375 11.78125 L 18.953125 -65.890625 L 28.140625 -65.890625 L 8.3125 11.78125 Z M -0.859375 11.78125 "/></g></g></g><g fill="#ad5530" fill-opacity="1"><g transform="translate(322.147357, 202.560772)"><g><path d="M 5.015625 0 L 5.015625 -7.875 L 38.4375 -21.03125 L 5.015625 -34.203125 L 5.015625 -42.078125 L 46.3125 -25.015625 L 46.3125 -17.140625 Z M 5.015625 0 "/></g></g></g><g fill="#877277" fill-opacity="0.4"><g transform="translate(83.540846, 230.454654)"><g><path d="M 2 0 L 2 -17.203125 L 11.21875 -17.203125 L 11.21875 -15.21875 L 4.484375 -15.21875 L 4.484375 -9.953125 L 10.875 -9.953125 L 10.875 -7.953125 L 4.484375 -7.953125 L 4.484375 0 Z M 2 0 "/></g></g></g><g fill="#877277" fill-opacity="0.4"><g transform="translate(95.087367, 230.454654)"><g><path d="M 8.734375 0 L 8.734375 -2.546875 L 8.671875 -2.546875 C 8.378906 -1.691406 7.914062 -1.003906 7.28125 -0.484375 C 6.644531 0.0234375 5.851562 0.28125 4.90625 0.28125 C 4.3125 0.28125 3.8125 0.171875 3.40625 -0.046875 C 3 -0.265625 2.671875 -0.550781 2.421875 -0.90625 C 2.171875 -1.269531 1.988281 -1.6875 1.875 -2.15625 C 1.769531 -2.632812 1.71875 -3.128906 1.71875 -3.640625 L 1.71875 -11.875 L 3.96875 -11.875 L 3.96875 -5.390625 C 3.96875 -5.140625 3.96875 -4.894531 3.96875 -4.65625 C 3.96875 -4.414062 3.972656 -4.171875 3.984375 -3.921875 C 4.023438 -3.347656 4.144531 -2.878906 4.34375 -2.515625 C 4.539062 -2.148438 4.957031 -1.96875 5.59375 -1.96875 C 6.132812 -1.96875 6.601562 -2.140625 7 -2.484375 C 7.40625 -2.828125 7.734375 -3.242188 7.984375 -3.734375 C 8.234375 -4.234375 8.421875 -4.765625 8.546875 -5.328125 C 8.671875 -5.898438 8.734375 -6.398438 8.734375 -6.828125 L 8.734375 -11.875 L 10.96875 -11.875 L 10.96875 0 Z M 8.734375 0 "/></g></g></g><g fill="#877277" fill-opacity="0.4"><g transform="translate(108.030451, 230.454654)"><g><path d="M 2.09375 0 L 2.09375 -17.203125 L 4.34375 -17.203125 L 4.34375 0 Z M 2.09375 0 "/></g></g></g><g fill="#877277" fill-opacity="0.4"><g transform="translate(114.489526, 230.454654)"><g><path d="M 2.09375 0 L 2.09375 -17.203125 L 4.34375 -17.203125 L 4.34375 0 Z M 2.09375 0 "/></g></g></g><g fill="#877277" fill-opacity="0.4"><g transform="translate(120.948601, 230.454654)"><g><path d="M 1.140625 -5.09375 L 1.140625 -7.75 L 10.421875 -7.75 L 10.421875 -5.09375 Z M 1.140625 -5.09375 "/></g></g></g><g fill="#877277" fill-opacity="0.4"><g transform="translate(132.495122, 230.454654)"><g><path d="M 1.265625 -3 C 1.960938 -2.59375 2.695312 -2.273438 3.46875 -2.046875 C 4.25 -1.828125 5.035156 -1.71875 5.828125 -1.71875 C 6.234375 -1.71875 6.628906 -1.765625 7.015625 -1.859375 C 7.410156 -1.953125 7.757812 -2.097656 8.0625 -2.296875 C 8.375 -2.492188 8.625 -2.753906 8.8125 -3.078125 C 9.007812 -3.398438 9.109375 -3.796875 9.109375 -4.265625 C 9.109375 -4.710938 9.023438 -5.097656 8.859375 -5.421875 C 8.691406 -5.742188 8.472656 -6.035156 8.203125 -6.296875 C 7.941406 -6.554688 7.644531 -6.785156 7.3125 -6.984375 C 6.976562 -7.179688 6.644531 -7.378906 6.3125 -7.578125 L 4.734375 -8.5 C 4.253906 -8.769531 3.789062 -9.039062 3.34375 -9.3125 C 2.894531 -9.582031 2.492188 -9.890625 2.140625 -10.234375 C 1.796875 -10.578125 1.519531 -10.972656 1.3125 -11.421875 C 1.101562 -11.867188 1 -12.410156 1 -13.046875 C 1 -13.878906 1.160156 -14.578125 1.484375 -15.140625 C 1.804688 -15.703125 2.238281 -16.15625 2.78125 -16.5 C 3.320312 -16.851562 3.929688 -17.101562 4.609375 -17.25 C 5.296875 -17.40625 5.992188 -17.484375 6.703125 -17.484375 C 8.015625 -17.484375 9.320312 -17.316406 10.625 -16.984375 L 10.625 -14.640625 C 9.957031 -14.859375 9.289062 -15.050781 8.625 -15.21875 C 7.957031 -15.394531 7.273438 -15.484375 6.578125 -15.484375 C 6.234375 -15.484375 5.890625 -15.441406 5.546875 -15.359375 C 5.203125 -15.273438 4.894531 -15.144531 4.625 -14.96875 C 4.363281 -14.800781 4.148438 -14.570312 3.984375 -14.28125 C 3.816406 -13.988281 3.734375 -13.640625 3.734375 -13.234375 C 3.734375 -12.890625 3.828125 -12.578125 4.015625 -12.296875 C 4.210938 -12.015625 4.457031 -11.75 4.75 -11.5 C 5.039062 -11.257812 5.347656 -11.046875 5.671875 -10.859375 C 5.992188 -10.671875 6.28125 -10.5 6.53125 -10.34375 L 8.234375 -9.34375 C 8.734375 -9.0625 9.203125 -8.773438 9.640625 -8.484375 C 10.078125 -8.203125 10.457031 -7.878906 10.78125 -7.515625 C 11.101562 -7.160156 11.359375 -6.75 11.546875 -6.28125 C 11.742188 -5.820312 11.84375 -5.265625 11.84375 -4.609375 C 11.84375 -3.710938 11.664062 -2.953125 11.3125 -2.328125 C 10.96875 -1.703125 10.503906 -1.195312 9.921875 -0.8125 C 9.335938 -0.4375 8.671875 -0.160156 7.921875 0.015625 C 7.179688 0.191406 6.421875 0.28125 5.640625 0.28125 C 4.921875 0.28125 4.1875 0.222656 3.4375 0.109375 C 2.6875 0.00390625 1.960938 -0.164062 1.265625 -0.40625 Z M 1.265625 -3 "/></g></g></g><g fill="#877277" fill-opacity="0.4"><g transform="translate(144.964368, 230.454654)"><g><path d="M 8.15625 0.09375 C 7.875 0.164062 7.582031 0.210938 7.28125 0.234375 C 6.976562 0.265625 6.679688 0.28125 6.390625 0.28125 C 5.859375 0.28125 5.375 0.234375 4.9375 0.140625 C 4.507812 0.046875 4.132812 -0.101562 3.8125 -0.3125 C 3.5 -0.53125 3.253906 -0.828125 3.078125 -1.203125 C 2.898438 -1.578125 2.8125 -2.050781 2.8125 -2.625 L 2.8125 -10.125 L 0.703125 -10.125 L 0.703125 -11.875 L 2.8125 -11.875 L 2.8125 -14.65625 L 5.0625 -16.0625 L 5.0625 -11.875 L 8.359375 -11.875 L 8.359375 -10.125 L 5.0625 -10.125 L 5.0625 -3.796875 C 5.0625 -3.128906 5.179688 -2.570312 5.421875 -2.125 C 5.660156 -1.6875 6.171875 -1.46875 6.953125 -1.46875 C 7.148438 -1.46875 7.351562 -1.476562 7.5625 -1.5 C 7.769531 -1.53125 7.96875 -1.578125 8.15625 -1.640625 Z M 8.15625 0.09375 "/></g></g></g><g fill="#877277" fill-opacity="0.4"><g transform="translate(153.742731, 230.454654)"><g><path d="M 7.5625 -5.3125 L 7.109375 -5.3125 C 6.753906 -5.3125 6.367188 -5.269531 5.953125 -5.1875 C 5.546875 -5.101562 5.164062 -4.96875 4.8125 -4.78125 C 4.46875 -4.601562 4.171875 -4.363281 3.921875 -4.0625 C 3.679688 -3.757812 3.5625 -3.40625 3.5625 -3 C 3.5625 -2.625 3.671875 -2.273438 3.890625 -1.953125 C 4.117188 -1.628906 4.441406 -1.46875 4.859375 -1.46875 C 5.242188 -1.46875 5.601562 -1.566406 5.9375 -1.765625 C 6.269531 -1.960938 6.554688 -2.21875 6.796875 -2.53125 C 7.035156 -2.84375 7.222656 -3.179688 7.359375 -3.546875 C 7.492188 -3.921875 7.5625 -4.285156 7.5625 -4.640625 Z M 7.5625 0 L 7.5625 -1.46875 L 7.5 -1.46875 C 7.238281 -0.90625 6.816406 -0.472656 6.234375 -0.171875 C 5.648438 0.128906 5.050781 0.28125 4.4375 0.28125 C 3.4375 0.28125 2.625 0.00390625 2 -0.546875 C 1.382812 -1.097656 1.078125 -1.890625 1.078125 -2.921875 C 1.078125 -3.753906 1.289062 -4.425781 1.71875 -4.9375 C 2.15625 -5.445312 2.695312 -5.835938 3.34375 -6.109375 C 3.988281 -6.390625 4.6875 -6.578125 5.4375 -6.671875 C 6.195312 -6.765625 6.90625 -6.8125 7.5625 -6.8125 L 7.5625 -8.625 C 7.5625 -9.238281 7.378906 -9.6875 7.015625 -9.96875 C 6.660156 -10.257812 6.234375 -10.40625 5.734375 -10.40625 C 5.148438 -10.40625 4.6875 -10.242188 4.34375 -9.921875 C 4.007812 -9.609375 3.84375 -9.160156 3.84375 -8.578125 L 1.46875 -8.578125 C 1.46875 -9.242188 1.585938 -9.800781 1.828125 -10.25 C 2.066406 -10.695312 2.390625 -11.0625 2.796875 -11.34375 C 3.210938 -11.625 3.6875 -11.828125 4.21875 -11.953125 C 4.75 -12.078125 5.3125 -12.140625 5.90625 -12.140625 C 8.5 -12.140625 9.796875 -10.867188 9.796875 -8.328125 L 9.796875 0 Z M 7.5625 0 "/></g></g></g><g fill="#877277" fill-opacity="0.4"><g transform="translate(165.289252, 230.454654)"><g><path d="M 10.078125 -0.171875 C 9.546875 -0.00390625 9.003906 0.109375 8.453125 0.171875 C 7.898438 0.242188 7.34375 0.28125 6.78125 0.28125 C 5.78125 0.28125 4.914062 0.109375 4.1875 -0.234375 C 3.457031 -0.585938 2.851562 -1.0625 2.375 -1.65625 C 1.90625 -2.257812 1.550781 -2.960938 1.3125 -3.765625 C 1.082031 -4.578125 0.96875 -5.441406 0.96875 -6.359375 C 0.96875 -7.171875 1.0625 -7.929688 1.25 -8.640625 C 1.445312 -9.347656 1.753906 -9.960938 2.171875 -10.484375 C 2.585938 -11.003906 3.109375 -11.410156 3.734375 -11.703125 C 4.367188 -11.992188 5.132812 -12.140625 6.03125 -12.140625 C 7.382812 -12.140625 8.429688 -11.785156 9.171875 -11.078125 C 9.910156 -10.378906 10.28125 -9.351562 10.28125 -8 L 7.703125 -8 C 7.703125 -8.300781 7.675781 -8.597656 7.625 -8.890625 C 7.582031 -9.179688 7.488281 -9.4375 7.34375 -9.65625 C 7.195312 -9.882812 7.007812 -10.066406 6.78125 -10.203125 C 6.550781 -10.335938 6.253906 -10.40625 5.890625 -10.40625 C 5.398438 -10.40625 5 -10.285156 4.6875 -10.046875 C 4.382812 -9.816406 4.140625 -9.519531 3.953125 -9.15625 C 3.773438 -8.789062 3.648438 -8.394531 3.578125 -7.96875 C 3.503906 -7.539062 3.46875 -7.144531 3.46875 -6.78125 C 3.46875 -6.03125 3.554688 -5.332031 3.734375 -4.6875 C 3.921875 -4.039062 4.207031 -3.476562 4.59375 -3 C 4.988281 -2.53125 5.476562 -2.15625 6.0625 -1.875 C 6.65625 -1.601562 7.359375 -1.46875 8.171875 -1.46875 C 8.503906 -1.46875 8.820312 -1.484375 9.125 -1.515625 C 9.4375 -1.554688 9.753906 -1.625 10.078125 -1.71875 Z M 10.078125 -0.171875 "/></g></g></g><g fill="#877277" fill-opacity="0.4"><g transform="translate(175.913048, 230.454654)"><g><path d="M 8.65625 0 L 4.140625 -6.140625 L 4.09375 -6.140625 L 4.09375 0 L 1.84375 0 L 1.84375 -17.203125 L 4.09375 -17.203125 L 4.09375 -7.125 L 8.234375 -11.875 L 11.046875 -11.875 L 6.65625 -6.6875 L 11.46875 0 Z M 8.65625 0 "/></g></g></g><g fill="#ad5530" fill-opacity="1"><g transform="translate(82.43806, 229.351861)"><g><path d="M 2 0 L 2 -17.203125 L 11.21875 -17.203125 L 11.21875 -15.21875 L 4.484375 -15.21875 L 4.484375 -9.953125 L 10.875 -9.953125 L 10.875 -7.953125 L 4.484375 -7.953125 L 4.484375 0 Z M 2 0 "/></g></g></g><g fill="#ad5530" fill-opacity="1"><g transform="translate(93.984582, 229.351861)"><g><path d="M 8.734375 0 L 8.734375 -2.546875 L 8.671875 -2.546875 C 8.378906 -1.691406 7.914062 -1.003906 7.28125 -0.484375 C 6.644531 0.0234375 5.851562 0.28125 4.90625 0.28125 C 4.3125 0.28125 3.8125 0.171875 3.40625 -0.046875 C 3 -0.265625 2.671875 -0.550781 2.421875 -0.90625 C 2.171875 -1.269531 1.988281 -1.6875 1.875 -2.15625 C 1.769531 -2.632812 1.71875 -3.128906 1.71875 -3.640625 L 1.71875 -11.875 L 3.96875 -11.875 L 3.96875 -5.390625 C 3.96875 -5.140625 3.96875 -4.894531 3.96875 -4.65625 C 3.96875 -4.414062 3.972656 -4.171875 3.984375 -3.921875 C 4.023438 -3.347656 4.144531 -2.878906 4.34375 -2.515625 C 4.539062 -2.148438 4.957031 -1.96875 5.59375 -1.96875 C 6.132812 -1.96875 6.601562 -2.140625 7 -2.484375 C 7.40625 -2.828125 7.734375 -3.242188 7.984375 -3.734375 C 8.234375 -4.234375 8.421875 -4.765625 8.546875 -5.328125 C 8.671875 -5.898438 8.734375 -6.398438 8.734375 -6.828125 L 8.734375 -11.875 L 10.96875 -11.875 L 10.96875 0 Z M 8.734375 0 "/></g></g></g><g fill="#ad5530" fill-opacity="1"><g transform="translate(106.927665, 229.351861)"><g><path d="M 2.09375 0 L 2.09375 -17.203125 L 4.34375 -17.203125 L 4.34375 0 Z M 2.09375 0 "/></g></g></g><g fill="#ad5530" fill-opacity="1"><g transform="translate(113.38674, 229.351861)"><g><path d="M 2.09375 0 L 2.09375 -17.203125 L 4.34375 -17.203125 L 4.34375 0 Z M 2.09375 0 "/></g></g></g><g fill="#ad5530" fill-opacity="1"><g transform="translate(119.845815, 229.351861)"><g><path d="M 1.140625 -5.09375 L 1.140625 -7.75 L 10.421875 -7.75 L 10.421875 -5.09375 Z M 1.140625 -5.09375 "/></g></g></g><g fill="#ad5530" fill-opacity="1"><g transform="translate(131.392337, 229.351861)"><g><path d="M 1.265625 -3 C 1.960938 -2.59375 2.695312 -2.273438 3.46875 -2.046875 C 4.25 -1.828125 5.035156 -1.71875 5.828125 -1.71875 C 6.234375 -1.71875 6.628906 -1.765625 7.015625 -1.859375 C 7.410156 -1.953125 7.757812 -2.097656 8.0625 -2.296875 C 8.375 -2.492188 8.625 -2.753906 8.8125 -3.078125 C 9.007812 -3.398438 9.109375 -3.796875 9.109375 -4.265625 C 9.109375 -4.710938 9.023438 -5.097656 8.859375 -5.421875 C 8.691406 -5.742188 8.472656 -6.035156 8.203125 -6.296875 C 7.941406 -6.554688 7.644531 -6.785156 7.3125 -6.984375 C 6.976562 -7.179688 6.644531 -7.378906 6.3125 -7.578125 L 4.734375 -8.5 C 4.253906 -8.769531 3.789062 -9.039062 3.34375 -9.3125 C 2.894531 -9.582031 2.492188 -9.890625 2.140625 -10.234375 C 1.796875 -10.578125 1.519531 -10.972656 1.3125 -11.421875 C 1.101562 -11.867188 1 -12.410156 1 -13.046875 C 1 -13.878906 1.160156 -14.578125 1.484375 -15.140625 C 1.804688 -15.703125 2.238281 -16.15625 2.78125 -16.5 C 3.320312 -16.851562 3.929688 -17.101562 4.609375 -17.25 C 5.296875 -17.40625 5.992188 -17.484375 6.703125 -17.484375 C 8.015625 -17.484375 9.320312 -17.316406 10.625 -16.984375 L 10.625 -14.640625 C 9.957031 -14.859375 9.289062 -15.050781 8.625 -15.21875 C 7.957031 -15.394531 7.273438 -15.484375 6.578125 -15.484375 C 6.234375 -15.484375 5.890625 -15.441406 5.546875 -15.359375 C 5.203125 -15.273438 4.894531 -15.144531 4.625 -14.96875 C 4.363281 -14.800781 4.148438 -14.570312 3.984375 -14.28125 C 3.816406 -13.988281 3.734375 -13.640625 3.734375 -13.234375 C 3.734375 -12.890625 3.828125 -12.578125 4.015625 -12.296875 C 4.210938 -12.015625 4.457031 -11.75 4.75 -11.5 C 5.039062 -11.257812 5.347656 -11.046875 5.671875 -10.859375 C 5.992188 -10.671875 6.28125 -10.5 6.53125 -10.34375 L 8.234375 -9.34375 C 8.734375 -9.0625 9.203125 -8.773438 9.640625 -8.484375 C 10.078125 -8.203125 10.457031 -7.878906 10.78125 -7.515625 C 11.101562 -7.160156 11.359375 -6.75 11.546875 -6.28125 C 11.742188 -5.820312 11.84375 -5.265625 11.84375 -4.609375 C 11.84375 -3.710938 11.664062 -2.953125 11.3125 -2.328125 C 10.96875 -1.703125 10.503906 -1.195312 9.921875 -0.8125 C 9.335938 -0.4375 8.671875 -0.160156 7.921875 0.015625 C 7.179688 0.191406 6.421875 0.28125 5.640625 0.28125 C 4.921875 0.28125 4.1875 0.222656 3.4375 0.109375 C 2.6875 0.00390625 1.960938 -0.164062 1.265625 -0.40625 Z M 1.265625 -3 "/></g></g></g><g fill="#ad5530" fill-opacity="1"><g transform="translate(143.861583, 229.351861)"><g><path d="M 8.15625 0.09375 C 7.875 0.164062 7.582031 0.210938 7.28125 0.234375 C 6.976562 0.265625 6.679688 0.28125 6.390625 0.28125 C 5.859375 0.28125 5.375 0.234375 4.9375 0.140625 C 4.507812 0.046875 4.132812 -0.101562 3.8125 -0.3125 C 3.5 -0.53125 3.253906 -0.828125 3.078125 -1.203125 C 2.898438 -1.578125 2.8125 -2.050781 2.8125 -2.625 L 2.8125 -10.125 L 0.703125 -10.125 L 0.703125 -11.875 L 2.8125 -11.875 L 2.8125 -14.65625 L 5.0625 -16.0625 L 5.0625 -11.875 L 8.359375 -11.875 L 8.359375 -10.125 L 5.0625 -10.125 L 5.0625 -3.796875 C 5.0625 -3.128906 5.179688 -2.570312 5.421875 -2.125 C 5.660156 -1.6875 6.171875 -1.46875 6.953125 -1.46875 C 7.148438 -1.46875 7.351562 -1.476562 7.5625 -1.5 C 7.769531 -1.53125 7.96875 -1.578125 8.15625 -1.640625 Z M 8.15625 0.09375 "/></g></g></g><g fill="#ad5530" fill-opacity="1"><g transform="translate(152.639946, 229.351861)"><g><path d="M 7.5625 -5.3125 L 7.109375 -5.3125 C 6.753906 -5.3125 6.367188 -5.269531 5.953125 -5.1875 C 5.546875 -5.101562 5.164062 -4.96875 4.8125 -4.78125 C 4.46875 -4.601562 4.171875 -4.363281 3.921875 -4.0625 C 3.679688 -3.757812 3.5625 -3.40625 3.5625 -3 C 3.5625 -2.625 3.671875 -2.273438 3.890625 -1.953125 C 4.117188 -1.628906 4.441406 -1.46875 4.859375 -1.46875 C 5.242188 -1.46875 5.601562 -1.566406 5.9375 -1.765625 C 6.269531 -1.960938 6.554688 -2.21875 6.796875 -2.53125 C 7.035156 -2.84375 7.222656 -3.179688 7.359375 -3.546875 C 7.492188 -3.921875 7.5625 -4.285156 7.5625 -4.640625 Z M 7.5625 0 L 7.5625 -1.46875 L 7.5 -1.46875 C 7.238281 -0.90625 6.816406 -0.472656 6.234375 -0.171875 C 5.648438 0.128906 5.050781 0.28125 4.4375 0.28125 C 3.4375 0.28125 2.625 0.00390625 2 -0.546875 C 1.382812 -1.097656 1.078125 -1.890625 1.078125 -2.921875 C 1.078125 -3.753906 1.289062 -4.425781 1.71875 -4.9375 C 2.15625 -5.445312 2.695312 -5.835938 3.34375 -6.109375 C 3.988281 -6.390625 4.6875 -6.578125 5.4375 -6.671875 C 6.195312 -6.765625 6.90625 -6.8125 7.5625 -6.8125 L 7.5625 -8.625 C 7.5625 -9.238281 7.378906 -9.6875 7.015625 -9.96875 C 6.660156 -10.257812 6.234375 -10.40625 5.734375 -10.40625 C 5.148438 -10.40625 4.6875 -10.242188 4.34375 -9.921875 C 4.007812 -9.609375 3.84375 -9.160156 3.84375 -8.578125 L 1.46875 -8.578125 C 1.46875 -9.242188 1.585938 -9.800781 1.828125 -10.25 C 2.066406 -10.695312 2.390625 -11.0625 2.796875 -11.34375 C 3.210938 -11.625 3.6875 -11.828125 4.21875 -11.953125 C 4.75 -12.078125 5.3125 -12.140625 5.90625 -12.140625 C 8.5 -12.140625 9.796875 -10.867188 9.796875 -8.328125 L 9.796875 0 Z M 7.5625 0 "/></g></g></g><g fill="#ad5530" fill-opacity="1"><g transform="translate(164.186467, 229.351861)"><g><path d="M 10.078125 -0.171875 C 9.546875 -0.00390625 9.003906 0.109375 8.453125 0.171875 C 7.898438 0.242188 7.34375 0.28125 6.78125 0.28125 C 5.78125 0.28125 4.914062 0.109375 4.1875 -0.234375 C 3.457031 -0.585938 2.851562 -1.0625 2.375 -1.65625 C 1.90625 -2.257812 1.550781 -2.960938 1.3125 -3.765625 C 1.082031 -4.578125 0.96875 -5.441406 0.96875 -6.359375 C 0.96875 -7.171875 1.0625 -7.929688 1.25 -8.640625 C 1.445312 -9.347656 1.753906 -9.960938 2.171875 -10.484375 C 2.585938 -11.003906 3.109375 -11.410156 3.734375 -11.703125 C 4.367188 -11.992188 5.132812 -12.140625 6.03125 -12.140625 C 7.382812 -12.140625 8.429688 -11.785156 9.171875 -11.078125 C 9.910156 -10.378906 10.28125 -9.351562 10.28125 -8 L 7.703125 -8 C 7.703125 -8.300781 7.675781 -8.597656 7.625 -8.890625 C 7.582031 -9.179688 7.488281 -9.4375 7.34375 -9.65625 C 7.195312 -9.882812 7.007812 -10.066406 6.78125 -10.203125 C 6.550781 -10.335938 6.253906 -10.40625 5.890625 -10.40625 C 5.398438 -10.40625 5 -10.285156 4.6875 -10.046875 C 4.382812 -9.816406 4.140625 -9.519531 3.953125 -9.15625 C 3.773438 -8.789062 3.648438 -8.394531 3.578125 -7.96875 C 3.503906 -7.539062 3.46875 -7.144531 3.46875 -6.78125 C 3.46875 -6.03125 3.554688 -5.332031 3.734375 -4.6875 C 3.921875 -4.039062 4.207031 -3.476562 4.59375 -3 C 4.988281 -2.53125 5.476562 -2.15625 6.0625 -1.875 C 6.65625 -1.601562 7.359375 -1.46875 8.171875 -1.46875 C 8.503906 -1.46875 8.820312 -1.484375 9.125 -1.515625 C 9.4375 -1.554688 9.753906 -1.625 10.078125 -1.71875 Z M 10.078125 -0.171875 "/></g></g></g><g fill="#ad5530" fill-opacity="1"><g transform="translate(174.810263, 229.351861)"><g><path d="M 8.65625 0 L 4.140625 -6.140625 L 4.09375 -6.140625 L 4.09375 0 L 1.84375 0 L 1.84375 -17.203125 L 4.09375 -17.203125 L 4.09375 -7.125 L 8.234375 -11.875 L 11.046875 -11.875 L 6.65625 -6.6875 L 11.46875 0 Z M 8.65625 0 "/></g></g></g><g fill="#877277" fill-opacity="0.4"><g transform="translate(187.465911, 230.454654)"><g/></g></g><g fill="#ff0036" fill-opacity="1"><g transform="translate(186.363125, 229.351861)"><g/></g></g><g fill="#877277" fill-opacity="0.4"><g transform="translate(194.857644, 230.454654)"><g><path d="M 5.953125 -2 C 6.410156 -2 6.867188 -2.03125 7.328125 -2.09375 C 7.796875 -2.15625 8.226562 -2.289062 8.625 -2.5 C 9.144531 -2.78125 9.554688 -3.15625 9.859375 -3.625 C 10.171875 -4.101562 10.40625 -4.625 10.5625 -5.1875 C 10.71875 -5.75 10.816406 -6.328125 10.859375 -6.921875 C 10.898438 -7.515625 10.921875 -8.078125 10.921875 -8.609375 C 10.921875 -9.117188 10.898438 -9.6875 10.859375 -10.3125 C 10.816406 -10.9375 10.71875 -11.535156 10.5625 -12.109375 C 10.40625 -12.679688 10.160156 -13.207031 9.828125 -13.6875 C 9.492188 -14.164062 9.046875 -14.53125 8.484375 -14.78125 C 8.078125 -14.96875 7.65625 -15.085938 7.21875 -15.140625 C 6.789062 -15.191406 6.363281 -15.21875 5.9375 -15.21875 L 4.484375 -15.21875 L 4.484375 -2 Z M 2 0 L 2 -17.203125 L 6.40625 -17.203125 C 7.820312 -17.203125 8.992188 -17 9.921875 -16.59375 C 10.859375 -16.1875 11.601562 -15.609375 12.15625 -14.859375 C 12.71875 -14.109375 13.109375 -13.207031 13.328125 -12.15625 C 13.554688 -11.101562 13.671875 -9.9375 13.671875 -8.65625 C 13.671875 -7.34375 13.554688 -6.148438 13.328125 -5.078125 C 13.109375 -4.015625 12.71875 -3.101562 12.15625 -2.34375 C 11.601562 -1.59375 10.859375 -1.015625 9.921875 -0.609375 C 8.992188 -0.203125 7.820312 0 6.40625 0 Z M 2 0 "/></g></g></g><g fill="#877277" fill-opacity="0.4"><g transform="translate(209.646178, 230.454654)"><g><path d="M 7.875 -8.296875 C 7.875 -8.929688 7.671875 -9.441406 7.265625 -9.828125 C 6.859375 -10.210938 6.335938 -10.40625 5.703125 -10.40625 C 5.222656 -10.40625 4.785156 -10.285156 4.390625 -10.046875 C 4.003906 -9.816406 3.710938 -9.476562 3.515625 -9.03125 C 3.398438 -8.757812 3.34375 -8.515625 3.34375 -8.296875 Z M 9.84375 -0.125 C 9.351562 -0.0078125 8.863281 0.0820312 8.375 0.15625 C 7.894531 0.238281 7.394531 0.28125 6.875 0.28125 C 5.8125 0.28125 4.910156 0.109375 4.171875 -0.234375 C 3.429688 -0.578125 2.820312 -1.050781 2.34375 -1.65625 C 1.875 -2.257812 1.53125 -2.972656 1.3125 -3.796875 C 1.101562 -4.617188 1 -5.523438 1 -6.515625 C 1 -7.328125 1.085938 -8.078125 1.265625 -8.765625 C 1.453125 -9.453125 1.738281 -10.046875 2.125 -10.546875 C 2.519531 -11.046875 3.023438 -11.4375 3.640625 -11.71875 C 4.253906 -12 4.984375 -12.140625 5.828125 -12.140625 C 6.546875 -12.140625 7.175781 -12.019531 7.71875 -11.78125 C 8.257812 -11.539062 8.707031 -11.207031 9.0625 -10.78125 C 9.414062 -10.363281 9.679688 -9.863281 9.859375 -9.28125 C 10.035156 -8.695312 10.125 -8.0625 10.125 -7.375 L 10.125 -6.8125 L 3.234375 -6.8125 C 3.234375 -6.144531 3.320312 -5.488281 3.5 -4.84375 C 3.675781 -4.207031 3.941406 -3.640625 4.296875 -3.140625 C 4.660156 -2.640625 5.113281 -2.234375 5.65625 -1.921875 C 6.207031 -1.617188 6.859375 -1.46875 7.609375 -1.46875 C 8.003906 -1.46875 8.382812 -1.503906 8.75 -1.578125 C 9.113281 -1.660156 9.476562 -1.765625 9.84375 -1.890625 Z M 9.84375 -0.125 "/></g></g></g><g fill="#877277" fill-opacity="0.4"><g transform="translate(220.718878, 230.454654)"><g><path d="M 4.59375 0 L 0.09375 -11.875 L 2.59375 -11.875 L 5.6875 -3.234375 L 5.734375 -3.234375 L 8.5 -11.875 L 11 -11.875 L 6.875 0 Z M 4.59375 0 "/></g></g></g><g fill="#877277" fill-opacity="0.4"><g transform="translate(231.791578, 230.454654)"><g><path d="M 7.875 -8.296875 C 7.875 -8.929688 7.671875 -9.441406 7.265625 -9.828125 C 6.859375 -10.210938 6.335938 -10.40625 5.703125 -10.40625 C 5.222656 -10.40625 4.785156 -10.285156 4.390625 -10.046875 C 4.003906 -9.816406 3.710938 -9.476562 3.515625 -9.03125 C 3.398438 -8.757812 3.34375 -8.515625 3.34375 -8.296875 Z M 9.84375 -0.125 C 9.351562 -0.0078125 8.863281 0.0820312 8.375 0.15625 C 7.894531 0.238281 7.394531 0.28125 6.875 0.28125 C 5.8125 0.28125 4.910156 0.109375 4.171875 -0.234375 C 3.429688 -0.578125 2.820312 -1.050781 2.34375 -1.65625 C 1.875 -2.257812 1.53125 -2.972656 1.3125 -3.796875 C 1.101562 -4.617188 1 -5.523438 1 -6.515625 C 1 -7.328125 1.085938 -8.078125 1.265625 -8.765625 C 1.453125 -9.453125 1.738281 -10.046875 2.125 -10.546875 C 2.519531 -11.046875 3.023438 -11.4375 3.640625 -11.71875 C 4.253906 -12 4.984375 -12.140625 5.828125 -12.140625 C 6.546875 -12.140625 7.175781 -12.019531 7.71875 -11.78125 C 8.257812 -11.539062 8.707031 -11.207031 9.0625 -10.78125 C 9.414062 -10.363281 9.679688 -9.863281 9.859375 -9.28125 C 10.035156 -8.695312 10.125 -8.0625 10.125 -7.375 L 10.125 -6.8125 L 3.234375 -6.8125 C 3.234375 -6.144531 3.320312 -5.488281 3.5 -4.84375 C 3.675781 -4.207031 3.941406 -3.640625 4.296875 -3.140625 C 4.660156 -2.640625 5.113281 -2.234375 5.65625 -1.921875 C 6.207031 -1.617188 6.859375 -1.46875 7.609375 -1.46875 C 8.003906 -1.46875 8.382812 -1.503906 8.75 -1.578125 C 9.113281 -1.660156 9.476562 -1.765625 9.84375 -1.890625 Z M 9.84375 -0.125 "/></g></g></g><g fill="#877277" fill-opacity="0.4"><g transform="translate(242.864279, 230.454654)"><g><path d="M 2.09375 0 L 2.09375 -17.203125 L 4.34375 -17.203125 L 4.34375 0 Z M 2.09375 0 "/></g></g></g><g fill="#877277" fill-opacity="0.4"><g transform="translate(249.323354, 230.454654)"><g><path d="M 6.265625 -1.46875 C 6.878906 -1.46875 7.363281 -1.613281 7.71875 -1.90625 C 8.070312 -2.195312 8.34375 -2.5625 8.53125 -3 C 8.726562 -3.445312 8.851562 -3.929688 8.90625 -4.453125 C 8.96875 -4.972656 9 -5.46875 9 -5.9375 C 9 -6.40625 8.96875 -6.898438 8.90625 -7.421875 C 8.851562 -7.941406 8.734375 -8.421875 8.546875 -8.859375 C 8.367188 -9.304688 8.097656 -9.675781 7.734375 -9.96875 C 7.367188 -10.257812 6.878906 -10.40625 6.265625 -10.40625 C 5.648438 -10.40625 5.15625 -10.257812 4.78125 -9.96875 C 4.414062 -9.6875 4.140625 -9.328125 3.953125 -8.890625 C 3.765625 -8.453125 3.640625 -7.96875 3.578125 -7.4375 C 3.515625 -6.914062 3.484375 -6.414062 3.484375 -5.9375 C 3.484375 -5.457031 3.515625 -4.953125 3.578125 -4.421875 C 3.640625 -3.898438 3.765625 -3.421875 3.953125 -2.984375 C 4.140625 -2.554688 4.414062 -2.195312 4.78125 -1.90625 C 5.15625 -1.613281 5.648438 -1.46875 6.265625 -1.46875 Z M 6.265625 0.28125 C 5.316406 0.28125 4.503906 0.125 3.828125 -0.1875 C 3.148438 -0.507812 2.601562 -0.953125 2.1875 -1.515625 C 1.78125 -2.085938 1.476562 -2.742188 1.28125 -3.484375 C 1.09375 -4.234375 1 -5.050781 1 -5.9375 C 1 -6.800781 1.09375 -7.609375 1.28125 -8.359375 C 1.476562 -9.117188 1.78125 -9.773438 2.1875 -10.328125 C 2.601562 -10.890625 3.148438 -11.332031 3.828125 -11.65625 C 4.503906 -11.976562 5.316406 -12.140625 6.265625 -12.140625 C 7.210938 -12.140625 8.015625 -11.976562 8.671875 -11.65625 C 9.335938 -11.332031 9.878906 -10.890625 10.296875 -10.328125 C 10.710938 -9.773438 11.015625 -9.117188 11.203125 -8.359375 C 11.398438 -7.609375 11.5 -6.800781 11.5 -5.9375 C 11.5 -5.070312 11.398438 -4.257812 11.203125 -3.5 C 11.015625 -2.75 10.710938 -2.09375 10.296875 -1.53125 C 9.878906 -0.976562 9.335938 -0.535156 8.671875 -0.203125 C 8.015625 0.117188 7.210938 0.28125 6.265625 0.28125 Z M 6.265625 0.28125 "/></g></g></g><g fill="#877277" fill-opacity="0.4"><g transform="translate(261.7926, 230.454654)"><g><path d="M 6.6875 -1.46875 C 7.21875 -1.46875 7.632812 -1.625 7.9375 -1.9375 C 8.25 -2.257812 8.484375 -2.648438 8.640625 -3.109375 C 8.796875 -3.578125 8.894531 -4.066406 8.9375 -4.578125 C 8.976562 -5.097656 9 -5.550781 9 -5.9375 C 9 -6.332031 8.976562 -6.785156 8.9375 -7.296875 C 8.894531 -7.816406 8.796875 -8.304688 8.640625 -8.765625 C 8.484375 -9.222656 8.242188 -9.609375 7.921875 -9.921875 C 7.609375 -10.242188 7.179688 -10.40625 6.640625 -10.40625 C 6.140625 -10.40625 5.722656 -10.238281 5.390625 -9.90625 C 5.054688 -9.582031 4.789062 -9.1875 4.59375 -8.71875 C 4.40625 -8.257812 4.273438 -7.769531 4.203125 -7.25 C 4.128906 -6.738281 4.09375 -6.289062 4.09375 -5.90625 C 4.09375 -5.488281 4.117188 -5.019531 4.171875 -4.5 C 4.234375 -3.988281 4.359375 -3.507812 4.546875 -3.0625 C 4.742188 -2.613281 5.007812 -2.234375 5.34375 -1.921875 C 5.6875 -1.617188 6.132812 -1.46875 6.6875 -1.46875 Z M 1.84375 5.34375 L 1.84375 -11.875 L 4.09375 -11.875 L 4.09375 -10.078125 L 4.140625 -10.078125 C 4.398438 -10.703125 4.84375 -11.203125 5.46875 -11.578125 C 6.09375 -11.953125 6.75 -12.140625 7.4375 -12.140625 C 8.25 -12.140625 8.914062 -11.953125 9.4375 -11.578125 C 9.957031 -11.203125 10.367188 -10.71875 10.671875 -10.125 C 10.984375 -9.539062 11.195312 -8.894531 11.3125 -8.1875 C 11.4375 -7.476562 11.5 -6.796875 11.5 -6.140625 C 11.5 -5.453125 11.4375 -4.734375 11.3125 -3.984375 C 11.195312 -3.242188 10.984375 -2.554688 10.671875 -1.921875 C 10.359375 -1.285156 9.929688 -0.757812 9.390625 -0.34375 C 8.847656 0.0703125 8.15625 0.28125 7.3125 0.28125 C 6.625 0.28125 5.992188 0.128906 5.421875 -0.171875 C 4.847656 -0.484375 4.421875 -0.96875 4.140625 -1.625 L 4.09375 -1.625 L 4.09375 5.34375 Z M 1.84375 5.34375 "/></g></g></g><g fill="#877277" fill-opacity="0.4"><g transform="translate(274.261846, 230.454654)"><g><path d="M 7.875 -8.296875 C 7.875 -8.929688 7.671875 -9.441406 7.265625 -9.828125 C 6.859375 -10.210938 6.335938 -10.40625 5.703125 -10.40625 C 5.222656 -10.40625 4.785156 -10.285156 4.390625 -10.046875 C 4.003906 -9.816406 3.710938 -9.476562 3.515625 -9.03125 C 3.398438 -8.757812 3.34375 -8.515625 3.34375 -8.296875 Z M 9.84375 -0.125 C 9.351562 -0.0078125 8.863281 0.0820312 8.375 0.15625 C 7.894531 0.238281 7.394531 0.28125 6.875 0.28125 C 5.8125 0.28125 4.910156 0.109375 4.171875 -0.234375 C 3.429688 -0.578125 2.820312 -1.050781 2.34375 -1.65625 C 1.875 -2.257812 1.53125 -2.972656 1.3125 -3.796875 C 1.101562 -4.617188 1 -5.523438 1 -6.515625 C 1 -7.328125 1.085938 -8.078125 1.265625 -8.765625 C 1.453125 -9.453125 1.738281 -10.046875 2.125 -10.546875 C 2.519531 -11.046875 3.023438 -11.4375 3.640625 -11.71875 C 4.253906 -12 4.984375 -12.140625 5.828125 -12.140625 C 6.546875 -12.140625 7.175781 -12.019531 7.71875 -11.78125 C 8.257812 -11.539062 8.707031 -11.207031 9.0625 -10.78125 C 9.414062 -10.363281 9.679688 -9.863281 9.859375 -9.28125 C 10.035156 -8.695312 10.125 -8.0625 10.125 -7.375 L 10.125 -6.8125 L 3.234375 -6.8125 C 3.234375 -6.144531 3.320312 -5.488281 3.5 -4.84375 C 3.675781 -4.207031 3.941406 -3.640625 4.296875 -3.140625 C 4.660156 -2.640625 5.113281 -2.234375 5.65625 -1.921875 C 6.207031 -1.617188 6.859375 -1.46875 7.609375 -1.46875 C 8.003906 -1.46875 8.382812 -1.503906 8.75 -1.578125 C 9.113281 -1.660156 9.476562 -1.765625 9.84375 -1.890625 Z M 9.84375 -0.125 "/></g></g></g><g fill="#877277" fill-opacity="0.4"><g transform="translate(285.334546, 230.454654)"><g><path d="M 1.84375 0 L 1.84375 -11.875 L 4.09375 -11.875 L 4.09375 -9.46875 L 4.140625 -9.46875 C 4.421875 -10.320312 4.875 -10.976562 5.5 -11.4375 C 6.132812 -11.90625 6.90625 -12.140625 7.8125 -12.140625 L 7.8125 -9.703125 C 7.09375 -9.703125 6.492188 -9.582031 6.015625 -9.34375 C 5.546875 -9.101562 5.164062 -8.769531 4.875 -8.34375 C 4.582031 -7.914062 4.378906 -7.421875 4.265625 -6.859375 C 4.148438 -6.296875 4.09375 -5.6875 4.09375 -5.03125 L 4.09375 0 Z M 1.84375 0 "/></g></g></g><g fill="#877277" fill-opacity="1"><g transform="translate(193.754859, 229.351861)"><g><path d="M 5.953125 -2 C 6.410156 -2 6.867188 -2.03125 7.328125 -2.09375 C 7.796875 -2.15625 8.226562 -2.289062 8.625 -2.5 C 9.144531 -2.78125 9.554688 -3.15625 9.859375 -3.625 C 10.171875 -4.101562 10.40625 -4.625 10.5625 -5.1875 C 10.71875 -5.75 10.816406 -6.328125 10.859375 -6.921875 C 10.898438 -7.515625 10.921875 -8.078125 10.921875 -8.609375 C 10.921875 -9.117188 10.898438 -9.6875 10.859375 -10.3125 C 10.816406 -10.9375 10.71875 -11.535156 10.5625 -12.109375 C 10.40625 -12.679688 10.160156 -13.207031 9.828125 -13.6875 C 9.492188 -14.164062 9.046875 -14.53125 8.484375 -14.78125 C 8.078125 -14.96875 7.65625 -15.085938 7.21875 -15.140625 C 6.789062 -15.191406 6.363281 -15.21875 5.9375 -15.21875 L 4.484375 -15.21875 L 4.484375 -2 Z M 2 0 L 2 -17.203125 L 6.40625 -17.203125 C 7.820312 -17.203125 8.992188 -17 9.921875 -16.59375 C 10.859375 -16.1875 11.601562 -15.609375 12.15625 -14.859375 C 12.71875 -14.109375 13.109375 -13.207031 13.328125 -12.15625 C 13.554688 -11.101562 13.671875 -9.9375 13.671875 -8.65625 C 13.671875 -7.34375 13.554688 -6.148438 13.328125 -5.078125 C 13.109375 -4.015625 12.71875 -3.101562 12.15625 -2.34375 C 11.601562 -1.59375 10.859375 -1.015625 9.921875 -0.609375 C 8.992188 -0.203125 7.820312 0 6.40625 0 Z M 2 0 "/></g></g></g><g fill="#877277" fill-opacity="1"><g transform="translate(208.543393, 229.351861)"><g><path d="M 7.875 -8.296875 C 7.875 -8.929688 7.671875 -9.441406 7.265625 -9.828125 C 6.859375 -10.210938 6.335938 -10.40625 5.703125 -10.40625 C 5.222656 -10.40625 4.785156 -10.285156 4.390625 -10.046875 C 4.003906 -9.816406 3.710938 -9.476562 3.515625 -9.03125 C 3.398438 -8.757812 3.34375 -8.515625 3.34375 -8.296875 Z M 9.84375 -0.125 C 9.351562 -0.0078125 8.863281 0.0820312 8.375 0.15625 C 7.894531 0.238281 7.394531 0.28125 6.875 0.28125 C 5.8125 0.28125 4.910156 0.109375 4.171875 -0.234375 C 3.429688 -0.578125 2.820312 -1.050781 2.34375 -1.65625 C 1.875 -2.257812 1.53125 -2.972656 1.3125 -3.796875 C 1.101562 -4.617188 1 -5.523438 1 -6.515625 C 1 -7.328125 1.085938 -8.078125 1.265625 -8.765625 C 1.453125 -9.453125 1.738281 -10.046875 2.125 -10.546875 C 2.519531 -11.046875 3.023438 -11.4375 3.640625 -11.71875 C 4.253906 -12 4.984375 -12.140625 5.828125 -12.140625 C 6.546875 -12.140625 7.175781 -12.019531 7.71875 -11.78125 C 8.257812 -11.539062 8.707031 -11.207031 9.0625 -10.78125 C 9.414062 -10.363281 9.679688 -9.863281 9.859375 -9.28125 C 10.035156 -8.695312 10.125 -8.0625 10.125 -7.375 L 10.125 -6.8125 L 3.234375 -6.8125 C 3.234375 -6.144531 3.320312 -5.488281 3.5 -4.84375 C 3.675781 -4.207031 3.941406 -3.640625 4.296875 -3.140625 C 4.660156 -2.640625 5.113281 -2.234375 5.65625 -1.921875 C 6.207031 -1.617188 6.859375 -1.46875 7.609375 -1.46875 C 8.003906 -1.46875 8.382812 -1.503906 8.75 -1.578125 C 9.113281 -1.660156 9.476562 -1.765625 9.84375 -1.890625 Z M 9.84375 -0.125 "/></g></g></g><g fill="#877277" fill-opacity="1"><g transform="translate(219.616093, 229.351861)"><g><path d="M 4.59375 0 L 0.09375 -11.875 L 2.59375 -11.875 L 5.6875 -3.234375 L 5.734375 -3.234375 L 8.5 -11.875 L 11 -11.875 L 6.875 0 Z M 4.59375 0 "/></g></g></g><g fill="#877277" fill-opacity="1"><g transform="translate(230.688793, 229.351861)"><g><path d="M 7.875 -8.296875 C 7.875 -8.929688 7.671875 -9.441406 7.265625 -9.828125 C 6.859375 -10.210938 6.335938 -10.40625 5.703125 -10.40625 C 5.222656 -10.40625 4.785156 -10.285156 4.390625 -10.046875 C 4.003906 -9.816406 3.710938 -9.476562 3.515625 -9.03125 C 3.398438 -8.757812 3.34375 -8.515625 3.34375 -8.296875 Z M 9.84375 -0.125 C 9.351562 -0.0078125 8.863281 0.0820312 8.375 0.15625 C 7.894531 0.238281 7.394531 0.28125 6.875 0.28125 C 5.8125 0.28125 4.910156 0.109375 4.171875 -0.234375 C 3.429688 -0.578125 2.820312 -1.050781 2.34375 -1.65625 C 1.875 -2.257812 1.53125 -2.972656 1.3125 -3.796875 C 1.101562 -4.617188 1 -5.523438 1 -6.515625 C 1 -7.328125 1.085938 -8.078125 1.265625 -8.765625 C 1.453125 -9.453125 1.738281 -10.046875 2.125 -10.546875 C 2.519531 -11.046875 3.023438 -11.4375 3.640625 -11.71875 C 4.253906 -12 4.984375 -12.140625 5.828125 -12.140625 C 6.546875 -12.140625 7.175781 -12.019531 7.71875 -11.78125 C 8.257812 -11.539062 8.707031 -11.207031 9.0625 -10.78125 C 9.414062 -10.363281 9.679688 -9.863281 9.859375 -9.28125 C 10.035156 -8.695312 10.125 -8.0625 10.125 -7.375 L 10.125 -6.8125 L 3.234375 -6.8125 C 3.234375 -6.144531 3.320312 -5.488281 3.5 -4.84375 C 3.675781 -4.207031 3.941406 -3.640625 4.296875 -3.140625 C 4.660156 -2.640625 5.113281 -2.234375 5.65625 -1.921875 C 6.207031 -1.617188 6.859375 -1.46875 7.609375 -1.46875 C 8.003906 -1.46875 8.382812 -1.503906 8.75 -1.578125 C 9.113281 -1.660156 9.476562 -1.765625 9.84375 -1.890625 Z M 9.84375 -0.125 "/></g></g></g><g fill="#877277" fill-opacity="1"><g transform="translate(241.761493, 229.351861)"><g><path d="M 2.09375 0 L 2.09375 -17.203125 L 4.34375 -17.203125 L 4.34375 0 Z M 2.09375 0 "/></g></g></g><g fill="#877277" fill-opacity="1"><g transform="translate(248.220568, 229.351861)"><g><path d="M 6.265625 -1.46875 C 6.878906 -1.46875 7.363281 -1.613281 7.71875 -1.90625 C 8.070312 -2.195312 8.34375 -2.5625 8.53125 -3 C 8.726562 -3.445312 8.851562 -3.929688 8.90625 -4.453125 C 8.96875 -4.972656 9 -5.46875 9 -5.9375 C 9 -6.40625 8.96875 -6.898438 8.90625 -7.421875 C 8.851562 -7.941406 8.734375 -8.421875 8.546875 -8.859375 C 8.367188 -9.304688 8.097656 -9.675781 7.734375 -9.96875 C 7.367188 -10.257812 6.878906 -10.40625 6.265625 -10.40625 C 5.648438 -10.40625 5.15625 -10.257812 4.78125 -9.96875 C 4.414062 -9.6875 4.140625 -9.328125 3.953125 -8.890625 C 3.765625 -8.453125 3.640625 -7.96875 3.578125 -7.4375 C 3.515625 -6.914062 3.484375 -6.414062 3.484375 -5.9375 C 3.484375 -5.457031 3.515625 -4.953125 3.578125 -4.421875 C 3.640625 -3.898438 3.765625 -3.421875 3.953125 -2.984375 C 4.140625 -2.554688 4.414062 -2.195312 4.78125 -1.90625 C 5.15625 -1.613281 5.648438 -1.46875 6.265625 -1.46875 Z M 6.265625 0.28125 C 5.316406 0.28125 4.503906 0.125 3.828125 -0.1875 C 3.148438 -0.507812 2.601562 -0.953125 2.1875 -1.515625 C 1.78125 -2.085938 1.476562 -2.742188 1.28125 -3.484375 C 1.09375 -4.234375 1 -5.050781 1 -5.9375 C 1 -6.800781 1.09375 -7.609375 1.28125 -8.359375 C 1.476562 -9.117188 1.78125 -9.773438 2.1875 -10.328125 C 2.601562 -10.890625 3.148438 -11.332031 3.828125 -11.65625 C 4.503906 -11.976562 5.316406 -12.140625 6.265625 -12.140625 C 7.210938 -12.140625 8.015625 -11.976562 8.671875 -11.65625 C 9.335938 -11.332031 9.878906 -10.890625 10.296875 -10.328125 C 10.710938 -9.773438 11.015625 -9.117188 11.203125 -8.359375 C 11.398438 -7.609375 11.5 -6.800781 11.5 -5.9375 C 11.5 -5.070312 11.398438 -4.257812 11.203125 -3.5 C 11.015625 -2.75 10.710938 -2.09375 10.296875 -1.53125 C 9.878906 -0.976562 9.335938 -0.535156 8.671875 -0.203125 C 8.015625 0.117188 7.210938 0.28125 6.265625 0.28125 Z M 6.265625 0.28125 "/></g></g></g><g fill="#877277" fill-opacity="1"><g transform="translate(260.689814, 229.351861)"><g><path d="M 6.6875 -1.46875 C 7.21875 -1.46875 7.632812 -1.625 7.9375 -1.9375 C 8.25 -2.257812 8.484375 -2.648438 8.640625 -3.109375 C 8.796875 -3.578125 8.894531 -4.066406 8.9375 -4.578125 C 8.976562 -5.097656 9 -5.550781 9 -5.9375 C 9 -6.332031 8.976562 -6.785156 8.9375 -7.296875 C 8.894531 -7.816406 8.796875 -8.304688 8.640625 -8.765625 C 8.484375 -9.222656 8.242188 -9.609375 7.921875 -9.921875 C 7.609375 -10.242188 7.179688 -10.40625 6.640625 -10.40625 C 6.140625 -10.40625 5.722656 -10.238281 5.390625 -9.90625 C 5.054688 -9.582031 4.789062 -9.1875 4.59375 -8.71875 C 4.40625 -8.257812 4.273438 -7.769531 4.203125 -7.25 C 4.128906 -6.738281 4.09375 -6.289062 4.09375 -5.90625 C 4.09375 -5.488281 4.117188 -5.019531 4.171875 -4.5 C 4.234375 -3.988281 4.359375 -3.507812 4.546875 -3.0625 C 4.742188 -2.613281 5.007812 -2.234375 5.34375 -1.921875 C 5.6875 -1.617188 6.132812 -1.46875 6.6875 -1.46875 Z M 1.84375 5.34375 L 1.84375 -11.875 L 4.09375 -11.875 L 4.09375 -10.078125 L 4.140625 -10.078125 C 4.398438 -10.703125 4.84375 -11.203125 5.46875 -11.578125 C 6.09375 -11.953125 6.75 -12.140625 7.4375 -12.140625 C 8.25 -12.140625 8.914062 -11.953125 9.4375 -11.578125 C 9.957031 -11.203125 10.367188 -10.71875 10.671875 -10.125 C 10.984375 -9.539062 11.195312 -8.894531 11.3125 -8.1875 C 11.4375 -7.476562 11.5 -6.796875 11.5 -6.140625 C 11.5 -5.453125 11.4375 -4.734375 11.3125 -3.984375 C 11.195312 -3.242188 10.984375 -2.554688 10.671875 -1.921875 C 10.359375 -1.285156 9.929688 -0.757812 9.390625 -0.34375 C 8.847656 0.0703125 8.15625 0.28125 7.3125 0.28125 C 6.625 0.28125 5.992188 0.128906 5.421875 -0.171875 C 4.847656 -0.484375 4.421875 -0.96875 4.140625 -1.625 L 4.09375 -1.625 L 4.09375 5.34375 Z M 1.84375 5.34375 "/></g></g></g><g fill="#877277" fill-opacity="1"><g transform="translate(273.159061, 229.351861)"><g><path d="M 7.875 -8.296875 C 7.875 -8.929688 7.671875 -9.441406 7.265625 -9.828125 C 6.859375 -10.210938 6.335938 -10.40625 5.703125 -10.40625 C 5.222656 -10.40625 4.785156 -10.285156 4.390625 -10.046875 C 4.003906 -9.816406 3.710938 -9.476562 3.515625 -9.03125 C 3.398438 -8.757812 3.34375 -8.515625 3.34375 -8.296875 Z M 9.84375 -0.125 C 9.351562 -0.0078125 8.863281 0.0820312 8.375 0.15625 C 7.894531 0.238281 7.394531 0.28125 6.875 0.28125 C 5.8125 0.28125 4.910156 0.109375 4.171875 -0.234375 C 3.429688 -0.578125 2.820312 -1.050781 2.34375 -1.65625 C 1.875 -2.257812 1.53125 -2.972656 1.3125 -3.796875 C 1.101562 -4.617188 1 -5.523438 1 -6.515625 C 1 -7.328125 1.085938 -8.078125 1.265625 -8.765625 C 1.453125 -9.453125 1.738281 -10.046875 2.125 -10.546875 C 2.519531 -11.046875 3.023438 -11.4375 3.640625 -11.71875 C 4.253906 -12 4.984375 -12.140625 5.828125 -12.140625 C 6.546875 -12.140625 7.175781 -12.019531 7.71875 -11.78125 C 8.257812 -11.539062 8.707031 -11.207031 9.0625 -10.78125 C 9.414062 -10.363281 9.679688 -9.863281 9.859375 -9.28125 C 10.035156 -8.695312 10.125 -8.0625 10.125 -7.375 L 10.125 -6.8125 L 3.234375 -6.8125 C 3.234375 -6.144531 3.320312 -5.488281 3.5 -4.84375 C 3.675781 -4.207031 3.941406 -3.640625 4.296875 -3.140625 C 4.660156 -2.640625 5.113281 -2.234375 5.65625 -1.921875 C 6.207031 -1.617188 6.859375 -1.46875 7.609375 -1.46875 C 8.003906 -1.46875 8.382812 -1.503906 8.75 -1.578125 C 9.113281 -1.660156 9.476562 -1.765625 9.84375 -1.890625 Z M 9.84375 -0.125 "/></g></g></g><g fill="#877277" fill-opacity="1"><g transform="translate(284.231761, 229.351861)"><g><path d="M 1.84375 0 L 1.84375 -11.875 L 4.09375 -11.875 L 4.09375 -9.46875 L 4.140625 -9.46875 C 4.421875 -10.320312 4.875 -10.976562 5.5 -11.4375 C 6.132812 -11.90625 6.90625 -12.140625 7.8125 -12.140625 L 7.8125 -9.703125 C 7.09375 -9.703125 6.492188 -9.582031 6.015625 -9.34375 C 5.546875 -9.101562 5.164062 -8.769531 4.875 -8.34375 C 4.582031 -7.914062 4.378906 -7.421875 4.265625 -6.859375 C 4.148438 -6.296875 4.09375 -5.6875 4.09375 -5.03125 L 4.09375 0 Z M 1.84375 0 "/></g></g></g></svg>